<svg width="1280" height="407" viewBox="0 0 1280 407" fill="none" xmlns="http://www.w3.org/2000/svg">
<g filter="url(#filter0_d_189_156)">
<rect y="14.1" width="1280" height="344" fill="url(#paint0_linear_189_156)"/>
</g>
<mask id="mask0_189_156" style="mask-type:alpha" maskUnits="userSpaceOnUse" x="0" y="14" width="1280" height="345">
<rect y="14.1" width="1280" height="344" fill="url(#paint1_linear_189_156)"/>
</mask>
<g mask="url(#mask0_189_156)">
<path opacity="0.7" d="M598.285 121.474C639.543 60.1676 608.863 -1.66841 430.574 -0.172171L434.855 -25.6071C716.305 -0.90051 628.135 110.334 613.531 125.243C598.926 140.152 497.02 296.993 779.701 224.578C1062.38 152.164 1105.83 227.855 993.849 385.525L945.407 384.072C1089.74 211.771 1023.15 176.649 776.084 246.074C529.021 315.5 557.027 182.78 598.285 121.474Z" fill="#BDD3EB" stroke="#BDD3EB" stroke-width="6" stroke-linecap="round"/>
<path opacity="0.7" d="M536.821 28.2115C594.15 -43.162 555.688 -112.347 318.172 -103.726L324.86 -132.84C698.757 -115.642 577.01 14.3745 556.98 31.9091C536.951 49.4437 395.138 231.899 774.444 138.515C1153.75 45.132 1208.68 129.59 1053.42 313.379L985.634 300.946C1184.55 99.2511 1100.54 74.5212 768.793 163.12C437.042 251.719 479.492 99.585 536.821 28.2115Z" fill="#BDD3EB" stroke="#BDD3EB" stroke-width="6" stroke-linecap="round"/>
<path opacity="0.6" d="M181.6 153.043C335.578 69.3568 290.077 51.0345 114.308 -5.98115L137.376 -12.1565C290.731 25.141 297.603 42.3202 298 78.1C298.397 113.88 114.098 193.749 108 221.1C99.9182 257.355 150.75 241.1 281.125 221.1C411.5 201.1 398.085 249.399 281.125 395.545L201.382 416.892C201.382 416.892 443.752 216.838 269.251 238.432C94.7507 260.027 27.6217 236.728 181.6 153.043Z" fill="#BDD3EB" stroke="#BDD3EB" stroke-width="6" stroke-linecap="round"/>
</g>
<path d="M792.5 248.872C707.624 276.263 681 340.372 681 340.372L1300 339.872C1300 339.872 1215 311.338 1118.5 240.872C979.5 139.372 918 208.372 792.5 248.872Z" fill="#FECE86" stroke="#FECE86" stroke-width="6" stroke-linecap="round"/>
<path d="M334.779 204.1C236.869 210.292 225.879 226.157 94 305.1H640C474.651 240.476 478.148 207.583 334.779 204.1Z" fill="#FECE86" stroke="#FECE86" stroke-width="6" stroke-linecap="round"/>
<path d="M1081.8 311.6L1106.24 290.1M1081.8 311.6C1097.54 267.961 1100.02 240.973 1096.28 189.6M1081.8 311.6L1081.46 284.6M1081.8 311.6H1079.12M1134.91 228.6L1129.54 269.6L1115.9 281.6M1115.9 281.6L1118.81 249.1M1115.9 281.6L1106.24 290.1M1106.24 290.1L1146.17 279.6L1151 253.1M1081.8 234.1L1081.46 284.6M1081.46 284.6L1064.1 247.305M1052.83 223.1L1027.09 208.6L1028.16 175.6M1052.83 223.1L1051.23 208.6C1051.23 208.6 1055.63 201.524 1056.59 196.6C1057.98 189.468 1054.44 178.1 1054.44 178.1M1052.83 223.1C1064 204.205 1065.33 192.114 1066.25 170.1M1052.83 223.1L1064.1 247.305M1064.1 247.305C1064.1 247.305 1079.12 237.6 1073.22 223.1C1067.32 208.6 1079.66 164.1 1079.66 164.1M1075.9 312.1C1075.9 312.1 1070 281.6 1024.94 271.6M1075.9 312.1C1075.9 312.1 1020.68 305.589 1001.87 292.1C991.419 284.6 989 271.6 989 271.6M1075.9 312.1L1079.12 311.6M1024.94 271.6C1027.51 250.171 1026.88 238.331 1021.19 217.6M1024.94 271.6C1016.71 269.774 1007.24 259.6 1005.97 245.6C1004.7 231.6 999.192 221.6 999.192 221.6M1079.12 311.6L1061.42 266.6C1046.35 258.649 1040.42 251.056 1034.6 231.6" stroke="#7D2478" stroke-width="8" stroke-linecap="round"/>
<path d="M910.117 196.898C905.626 189.265 910.744 168.369 910.744 168.369C910.744 168.369 891.567 191.549 888.721 208.072C886.289 222.192 884.698 240.771 883.533 255.052C881.606 278.667 870.315 301.293 870.315 301.293L908.898 309.759C908.898 309.759 922.92 299.526 903.071 259.338C892.806 238.555 933.979 237.454 910.117 196.898Z" fill="#7DC535" stroke="#7DC535" stroke-width="2" stroke-linecap="round"/>
<path d="M891.68 170.329C882.177 147.768 913.319 130.03 913.319 130.03C913.319 130.03 851.729 137.773 870.336 178.955C888.943 220.137 861.656 218.514 837.764 248.081C820.315 270.659 821.771 290.643 821.771 290.643L883.797 304.251C883.797 304.251 892.631 282.643 886.293 264.871C879.955 247.1 895.077 239.734 898.772 226.658C904.138 207.671 901.183 192.89 891.68 170.329Z" fill="#017254" stroke="#017254" stroke-width="2" stroke-linecap="round"/>
<path d="M825.319 292.445L796.016 286.015C796.016 286.015 789.304 271.662 825.218 234.579C839.12 220.224 806.175 192.456 813.503 173.652C818.051 161.983 833.048 161.56 833.048 161.56C833.048 161.56 824.878 168.47 829.596 188.957C833.078 204.075 839.569 206.502 843.286 217.555C847.004 228.609 850.317 242.261 840.134 255.255C821.649 278.842 825.319 292.445 825.319 292.445Z" fill="#7DC535" stroke="#7DC535" stroke-width="2" stroke-linecap="round"/>
<path d="M849.87 144.619C848.685 137.253 839.29 132.877 832.611 136.263C827.96 138.621 825.514 142.705 826.081 147.869C826.724 153.737 831.354 157.744 837.275 158.082C844.481 158.493 851.01 151.713 849.87 144.619Z" stroke="#E1F3FF" stroke-width="5"/>
<path d="M0 358.1V236.506C0 236.506 58 213.817 165.5 271.414C273 329.011 378.5 303.994 548.5 258.614C718.5 213.235 710 225.858 870 291.6C1030 357.342 1070.94 314.94 1142.5 263.6C1209 215.893 1300 251.051 1300 251.051V358.1H0Z" fill="#FEEFB4" stroke="#FEEFB4" stroke-width="6" stroke-linecap="round"/>
<path d="M733.051 233.751C730.683 228.139 728.348 226.528 721.551 227.751C707.648 243.143 688.806 244.272 665.051 232.501C657.52 235 657.614 237.379 660.551 242.251C660.551 242.251 686.051 243.251 680.051 254.751C677.866 258.938 668.051 253.251 668.051 253.251C668.051 253.251 673.117 263.979 666.051 264.251C653.051 264.751 655.551 246.751 655.551 246.751C655.551 246.751 652.006 241.205 652.051 237.251C652.134 229.791 665.051 223.251 665.051 223.251L666.551 218.751L657.051 217.751C657.051 217.751 649.421 221.571 647.051 226.251C644.643 231.006 650.375 241.507 645.051 241.751C639.868 241.989 639.875 234.436 640.051 229.251C640.346 220.53 646.241 214.915 654.551 212.251C660.327 210.399 670.051 213.251 670.051 213.251L674.551 206.751L683.551 201.751C690.149 200.882 693.871 200.884 700.551 201.751L712.051 207.751C712.051 207.751 718.347 202.376 723.051 202.751C751.394 205.013 757.551 236.252 750.051 235.251C742.551 234.251 749.102 223.402 737.551 215.251C726 207.1 723.051 208.751 723.051 208.751C723.051 208.751 719.199 210.298 717.051 212.251L722.051 219.751C733.051 219.751 740.387 230.503 742.551 237.751C745.827 248.725 738.664 260.854 735.051 260.251C729.051 259.251 729.551 248.251 729.551 248.251C729.551 248.251 718.687 252.798 717.551 248.251C716.051 242.251 733.051 233.751 733.051 233.751Z" fill="#D10101"/>
<circle cx="705" cy="203.1" r="7" fill="white"/>
<circle cx="705" cy="202.1" r="4" fill="black"/>
<circle cx="679" cy="204.1" r="7" fill="white"/>
<circle cx="679" cy="203.1" r="4" fill="black"/>
<line x1="687.5" y1="219.6" x2="699.5" y2="219.6" stroke="black" stroke-width="5" stroke-linecap="round"/>
<path d="M586.351 254.225C587.887 246.5 590.908 239.136 596.504 230.143M628.232 188.993C625.566 192.15 623.059 195.142 620.704 197.988M596.504 230.143L587.392 225.395M596.504 230.143L611.094 234.68M596.504 230.143C599.065 226.027 602.166 221.57 605.912 216.581M605.912 216.581L596.592 199.002M605.912 216.581L624.384 220.141M605.912 216.581C608.601 212.999 611.622 209.144 615.013 204.943M620.704 197.988L611.056 183.404M620.704 197.988L640.623 204.858M620.704 197.988C618.7 200.41 616.805 202.724 615.013 204.943M615.013 204.943L629.97 211.697" stroke="#7CC434" stroke-width="6" stroke-linecap="round"/>
<path d="M572.952 253.533C570.116 245.443 568.198 237.245 567.126 229.342M584.204 174.404C580.585 175.112 577.45 177.235 574.851 180.472M566.231 208.997L582.847 205.009M566.231 208.997L554.075 202.851M566.231 208.997C566.019 212.817 566.036 216.831 566.295 220.974M566.231 208.997C566.594 202.466 567.626 196.502 569.27 191.424M567.126 229.342L550.773 227.758M567.126 229.342C566.741 226.508 566.465 223.713 566.295 220.974M566.295 220.974L582.841 222.473M569.27 191.424L561.011 181.267M569.27 191.424L583.015 185.416M569.27 191.424C570.688 187.045 572.561 183.326 574.851 180.472M574.851 180.472L569.719 168.73" stroke="#7CC434" stroke-width="6" stroke-linecap="round"/>
<path d="M556.489 255.817C555.168 248.073 548.46 236.167 534.037 215.428M498.203 166.155C499.029 167.267 499.844 168.366 500.65 169.451M534.037 215.428L546.914 211.437M534.037 215.428L525.435 228.464M534.037 215.428C530.63 210.53 526.793 205.138 522.494 199.192M522.494 199.192L537.045 190.104M522.494 199.192C520.856 196.927 519.152 194.581 517.379 192.152M517.379 192.152L508.293 209.219M517.379 192.152C515.723 189.883 514.008 187.542 512.231 185.125M512.231 185.125L522.909 168.999M512.231 185.125L493.211 193.438M512.231 185.125C508.627 180.22 504.77 175.004 500.65 169.451M500.65 169.451L490.669 177.633M500.65 169.451L517.73 160.895" stroke="#7CC434" stroke-width="6" stroke-linecap="round"/>
<path d="M864.799 63.9998C862.973 52.4705 848.488 45.6207 838.192 50.9203C831.022 54.6108 827.251 61.0034 828.124 69.0862C829.116 78.2705 836.255 84.5435 845.383 85.0722C856.492 85.7156 866.558 75.1023 864.799 63.9998Z" stroke="#E1F3FF" stroke-width="8"/>
<path d="M823.87 105.619C822.685 98.2534 813.29 93.8771 806.611 97.263C801.96 99.6208 799.514 103.705 800.081 108.869C800.724 114.737 805.354 118.744 811.275 119.082C818.481 119.493 825.01 112.713 823.87 105.619Z" stroke="#E1F3FF" stroke-width="5"/>
<path d="M1133.35 289.225C1134.89 281.5 1137.91 274.136 1143.5 265.143M1175.23 223.993C1172.57 227.15 1170.06 230.142 1167.7 232.988M1143.5 265.143L1134.39 260.395M1143.5 265.143L1158.09 269.68M1143.5 265.143C1146.07 261.027 1149.17 256.57 1152.91 251.581M1152.91 251.581L1143.59 234.001M1152.91 251.581L1171.38 255.141M1152.91 251.581C1155.6 247.999 1158.62 244.143 1162.01 239.943M1167.7 232.988L1158.06 218.403M1167.7 232.988L1187.62 239.858M1167.7 232.988C1165.7 235.41 1163.8 237.724 1162.01 239.943M1162.01 239.943L1176.97 246.697" stroke="#7CC434" stroke-width="6" stroke-linecap="round"/>
<path d="M1119.95 288.533C1117.12 280.443 1115.2 272.245 1114.13 264.341M1131.2 209.404C1127.59 210.112 1124.45 212.235 1121.85 215.472M1113.23 243.997L1129.85 240.009M1113.23 243.997L1101.07 237.851M1113.23 243.997C1113.02 247.817 1113.04 251.831 1113.29 255.974M1113.23 243.997C1113.59 237.466 1114.63 231.502 1116.27 226.424M1114.13 264.341L1097.77 262.758M1114.13 264.341C1113.74 261.508 1113.47 258.713 1113.29 255.974M1113.29 255.974L1129.84 257.473M1116.27 226.424L1108.01 216.266M1116.27 226.424L1130.01 220.416M1116.27 226.424C1117.69 222.045 1119.56 218.326 1121.85 215.472M1121.85 215.472L1116.72 203.73" stroke="#7CC434" stroke-width="6" stroke-linecap="round"/>
<path d="M1103.49 290.817C1102.17 283.073 1095.46 271.167 1081.04 250.428M1045.2 201.155C1046.03 202.267 1046.84 203.365 1047.65 204.451M1081.04 250.428L1093.91 246.437M1081.04 250.428L1072.44 263.464M1081.04 250.428C1077.63 245.53 1073.79 240.138 1069.49 234.192M1069.49 234.192L1084.04 225.104M1069.49 234.192C1067.86 231.927 1066.15 229.581 1064.38 227.152M1064.38 227.152L1055.29 244.219M1064.38 227.152C1062.72 224.883 1061.01 222.542 1059.23 220.125M1059.23 220.125L1069.91 203.999M1059.23 220.125L1040.21 228.438M1059.23 220.125C1055.63 215.22 1051.77 210.003 1047.65 204.451M1047.65 204.451L1037.67 212.633M1047.65 204.451L1064.73 195.895" stroke="#7CC434" stroke-width="6" stroke-linecap="round"/>
<path d="M157.5 277.6L134.72 256.1M157.5 277.6C142.834 233.961 140.519 206.973 144 155.6M157.5 277.6L157.822 250.6M157.5 277.6H160M108 194.6L113 235.6L125.714 247.6M125.714 247.6L123 215.1M125.714 247.6L134.72 256.1M134.72 256.1L97.5 245.6L93 219.1M157.5 200.1L157.822 250.6M157.822 250.6L174 213.305M184.5 189.1L208.5 174.6L207.5 141.6M184.5 189.1L186 174.6C186 174.6 181.895 167.524 181 162.6C179.704 155.468 183 144.1 183 144.1M184.5 189.1C174.095 170.205 172.851 158.114 172 136.1M184.5 189.1L174 213.305M174 213.305C174 213.305 160 203.6 165.5 189.1C171 174.6 159.5 130.1 159.5 130.1M163 278.1C163 278.1 168.5 247.6 210.5 237.6M163 278.1C163 278.1 214.473 271.589 232 258.1C241.745 250.6 244 237.6 244 237.6M163 278.1L160 277.6M210.5 237.6C208.104 216.171 208.695 204.331 214 183.6M210.5 237.6C218.168 235.774 227 225.6 228.182 211.6C229.365 197.6 234.5 187.6 234.5 187.6M160 277.6L176.5 232.6C190.543 224.649 196.069 217.056 201.5 197.6" stroke="#7D2478" stroke-width="8" stroke-linecap="round"/>
<path d="M484.452 259.622C481.323 266.09 495.453 271.622 495.453 271.622C495.453 271.622 481.792 277.828 484.452 283.622C486.828 288.796 501.952 283.622 501.952 283.622C501.952 283.622 505.34 299.124 511.952 297.122C518.93 295.01 513.953 279.622 513.953 279.622C513.953 279.622 528.452 285.557 531.452 279.622C534.645 273.308 517.452 268.122 517.452 268.122C517.452 268.122 523.449 253.901 517.452 250.622C511.216 247.212 502.952 261.622 502.952 261.622C502.952 261.622 487.617 253.081 484.452 259.622Z" fill="#F76425"/>
<path d="M901.452 302.622C898.323 309.09 912.453 314.622 912.453 314.622C912.453 314.622 898.792 320.828 901.452 326.622C903.828 331.796 918.952 326.622 918.952 326.622C918.952 326.622 922.34 342.124 928.952 340.122C935.93 338.01 930.953 322.622 930.953 322.622C930.953 322.622 945.452 328.557 948.452 322.622C951.645 316.308 934.452 311.122 934.452 311.122C934.452 311.122 940.449 296.901 934.452 293.622C928.216 290.212 919.952 304.622 919.952 304.622C919.952 304.622 904.617 296.081 901.452 302.622Z" fill="#F76425"/>
<path d="M949.452 177.622C946.323 184.09 960.453 189.622 960.453 189.622C960.453 189.622 946.792 195.828 949.452 201.622C951.828 206.796 966.952 201.622 966.952 201.622C966.952 201.622 970.34 217.124 976.952 215.122C983.93 213.01 978.953 197.622 978.953 197.622C978.953 197.622 993.452 203.557 996.452 197.622C999.645 191.308 982.452 186.122 982.452 186.122C982.452 186.122 988.449 171.901 982.452 168.622C976.216 165.212 967.952 179.622 967.952 179.622C967.952 179.622 952.617 171.081 949.452 177.622Z" fill="#F76425"/>
<path d="M372.037 308.259C368.536 309.259 348.038 310.259 346.539 307.259C345.04 304.259 338.037 281.758 343.537 275.259C349.037 268.759 370.038 270.759 373.037 275.259C376.037 279.758 375.539 307.259 372.037 308.259Z" fill="#F59B23"/>
<path d="M310.539 317.759C307.539 314.759 297.039 288.259 300.539 281.759C304.038 275.259 328.539 271.759 333.039 281.259C337.539 290.759 335.039 317.259 330.539 318.759C322.313 321.501 313.539 320.759 310.539 317.759Z" fill="#F59B23"/>
<path d="M368.54 280.259C365.48 280.297 351.538 280.759 350.539 279.259C349.54 277.759 349.539 275.654 351.039 274.654C352.539 273.654 362.451 273.801 367.039 274.154C371.627 274.507 371.6 280.22 368.54 280.259Z" fill="#841E8B"/>
<path d="M308.633 279.173C305.493 280.097 305.444 284.456 308.058 286.46C310.356 288.222 319.663 287.846 322.539 287.259C325.415 286.672 328.076 280.182 324.451 278.948C322.725 278.36 313.803 277.65 308.633 279.173Z" fill="#832190"/>
<path d="M355.039 320.259C345.488 323.84 334.603 326.617 327.538 319.259C322.738 314.259 324.539 299.259 325.539 294.759C326.656 289.733 341.664 286.293 349.539 291.759C353.539 294.535 357.539 319.321 355.039 320.259Z" fill="#FFD201"/>
<path d="M355.039 320.259C345.488 323.84 334.603 326.617 327.538 319.259C322.738 314.259 324.539 299.259 325.539 294.759C326.656 289.733 341.664 286.293 349.539 291.759C353.539 294.535 357.539 319.321 355.039 320.259Z" fill="#FFD201"/>
<path d="M305.138 315.817C303.712 317.774 297.537 320.71 292.786 315.817C288.036 310.923 286.613 294.284 289.462 291.348C292.311 288.412 302.113 288.801 303.539 290.759C304.965 292.716 306.564 313.859 305.138 315.817Z" fill="#FFD201"/>
<path d="M330.351 292.898C329.236 296.271 333.172 298.638 336.643 299.248C340.782 299.975 346.037 297.016 345.033 292.898C343.858 288.079 330.876 291.311 330.351 292.898Z" fill="#841E8B"/>
<path d="M300.312 296.154C298.704 297.665 294.01 297.893 291.735 296.154C289.749 294.636 291.2 292.755 292.272 292C293.343 291.245 299.239 291.244 300.312 291.622C302.558 292.414 301.865 294.695 300.312 296.154Z" fill="#841E8B"/>
<path d="M419.037 324.259C415.536 325.259 395.038 326.259 393.539 323.259C392.04 320.259 385.037 297.758 390.537 291.259C396.037 284.759 417.038 286.759 420.037 291.259C423.037 295.758 422.539 323.259 419.037 324.259Z" fill="#F59B23"/>
<path d="M357.539 333.759C354.539 330.759 344.039 304.259 347.539 297.759C351.038 291.259 375.539 287.759 380.039 297.259C384.539 306.759 382.039 333.259 377.539 334.759C369.313 337.501 360.539 336.759 357.539 333.759Z" fill="#F59B23"/>
<path d="M415.54 296.259C412.48 296.297 398.538 296.759 397.539 295.259C396.54 293.759 396.539 291.654 398.039 290.654C399.539 289.654 409.451 289.801 414.039 290.154C418.627 290.507 418.6 296.22 415.54 296.259Z" fill="#841E8B"/>
<path d="M355.633 295.173C352.493 296.097 352.444 300.456 355.058 302.46C357.356 304.222 366.663 303.846 369.539 303.259C372.415 302.672 375.076 296.182 371.451 294.948C369.725 294.36 360.803 293.65 355.633 295.173Z" fill="#832190"/>
<path d="M402.039 336.259C392.488 339.84 381.603 342.617 374.538 335.259C369.738 330.259 371.539 315.259 372.539 310.759C373.656 305.733 388.664 302.293 396.539 307.759C400.539 310.535 404.539 335.321 402.039 336.259Z" fill="#FFD201"/>
<path d="M402.039 336.259C392.488 339.84 381.603 342.617 374.538 335.259C369.738 330.259 371.539 315.259 372.539 310.759C373.656 305.733 388.664 302.293 396.539 307.759C400.539 310.535 404.539 335.321 402.039 336.259Z" fill="#FFD201"/>
<path d="M352.138 331.817C350.712 333.774 344.537 336.71 339.786 331.817C335.036 326.923 333.613 310.284 336.462 307.348C339.311 304.412 349.113 304.801 350.539 306.759C351.965 308.716 353.564 329.859 352.138 331.817Z" fill="#FFD201"/>
<path d="M377.351 308.898C376.236 312.271 380.172 314.638 383.643 315.248C387.782 315.975 393.037 313.016 392.033 308.898C390.858 304.079 377.876 307.311 377.351 308.898Z" fill="#841E8B"/>
<path d="M347.312 312.154C345.704 313.665 341.01 313.893 338.735 312.154C336.749 310.636 338.2 308.755 339.272 308C340.343 307.245 346.239 307.244 347.312 307.622C349.558 308.414 348.865 310.695 347.312 312.154Z" fill="#841E8B"/>
<path d="M1135.04 312.259C1131.54 313.259 1111.04 314.259 1109.54 311.259C1108.04 308.259 1101.04 285.758 1106.54 279.259C1112.04 272.759 1133.04 274.759 1136.04 279.259C1139.04 283.758 1138.54 311.259 1135.04 312.259Z" fill="#F59B23"/>
<path d="M1073.54 321.759C1070.54 318.759 1060.04 292.259 1063.54 285.759C1067.04 279.259 1091.54 275.759 1096.04 285.259C1100.54 294.759 1098.04 321.259 1093.54 322.759C1085.31 325.501 1076.54 324.759 1073.54 321.759Z" fill="#F59B23"/>
<path d="M1131.54 284.259C1128.48 284.297 1114.54 284.759 1113.54 283.259C1112.54 281.759 1112.54 279.654 1114.04 278.654C1115.54 277.654 1125.45 277.801 1130.04 278.154C1134.63 278.507 1134.6 284.22 1131.54 284.259Z" fill="#841E8B"/>
<path d="M1071.63 283.173C1068.49 284.097 1068.44 288.456 1071.06 290.46C1073.36 292.222 1082.66 291.846 1085.54 291.259C1088.42 290.672 1091.08 284.182 1087.45 282.948C1085.72 282.36 1076.8 281.65 1071.63 283.173Z" fill="#832190"/>
<path d="M1118.04 324.259C1108.49 327.84 1097.6 330.617 1090.54 323.259C1085.74 318.259 1087.54 303.259 1088.54 298.759C1089.66 293.733 1104.66 290.293 1112.54 295.759C1116.54 298.535 1120.54 323.321 1118.04 324.259Z" fill="#FFD201"/>
<path d="M1118.04 324.259C1108.49 327.84 1097.6 330.617 1090.54 323.259C1085.74 318.259 1087.54 303.259 1088.54 298.759C1089.66 293.733 1104.66 290.293 1112.54 295.759C1116.54 298.535 1120.54 323.321 1118.04 324.259Z" fill="#FFD201"/>
<path d="M1068.14 319.817C1066.71 321.774 1060.54 324.71 1055.79 319.817C1051.04 314.923 1049.61 298.284 1052.46 295.348C1055.31 292.412 1065.11 292.801 1066.54 294.759C1067.96 296.716 1069.56 317.859 1068.14 319.817Z" fill="#FFD201"/>
<path d="M1093.35 296.898C1092.24 300.271 1096.17 302.638 1099.64 303.248C1103.78 303.975 1109.04 301.016 1108.03 296.898C1106.86 292.079 1093.88 295.311 1093.35 296.898Z" fill="#841E8B"/>
<path d="M1063.31 300.154C1061.7 301.665 1057.01 301.893 1054.74 300.154C1052.75 298.636 1054.2 296.755 1055.27 296C1056.34 295.245 1062.24 295.244 1063.31 295.622C1065.56 296.414 1064.87 298.695 1063.31 300.154Z" fill="#841E8B"/>
<path d="M549.883 266.78C544.383 257.28 566.383 250.28 566.383 250.28C566.383 250.28 564.327 246.969 565.383 245.28C567.883 241.28 600.883 243.28 600.883 247.28C600.883 250.735 596.883 253.78 596.883 253.78C596.883 253.78 618.618 274.183 608.883 276.28C603.631 277.412 595.883 271.78 595.883 271.78C595.883 271.78 597.51 282.201 592.383 283.28C582.883 285.28 579.883 265.28 579.883 265.28C579.883 265.28 578.883 283.28 570.383 280.78C563.203 278.669 567.883 261.78 567.883 261.78C567.883 261.78 553.538 273.094 549.883 266.78Z" fill="#F5555C"/>
<path d="M564.35 257.939C561.441 253.462 573.077 250.164 573.077 250.164C573.077 250.164 571.99 248.603 572.548 247.808C573.87 245.923 591.325 246.865 591.325 248.75C591.325 250.378 589.209 251.813 589.209 251.813C589.209 251.813 600.705 261.427 595.556 262.416C592.778 262.949 588.68 260.295 588.68 260.295C588.68 260.295 589.541 265.205 586.829 265.714C581.804 266.656 580.217 257.232 580.217 257.232C580.217 257.232 579.688 265.714 575.192 264.536C571.395 263.541 573.87 255.583 573.87 255.583C573.87 255.583 566.283 260.914 564.35 257.939Z" fill="#FF9798"/>
<path d="M270.259 344.257C266.383 354.527 247.041 341.922 247.041 341.922C247.041 341.922 245.778 345.609 243.803 345.861C239.123 346.456 219.789 319.638 222.887 317.107C225.562 314.921 230.451 316.091 230.451 316.091C230.451 316.091 232.495 286.351 240.28 292.561C244.479 295.912 245.022 305.475 245.022 305.475C245.022 305.475 252.061 297.621 256.141 300.908C263.701 306.998 250.113 321.977 250.113 321.977C250.113 321.977 264.684 311.361 268.127 319.525C271.035 326.42 254.997 333.484 254.997 333.484C254.997 333.484 272.835 337.432 270.259 344.257Z" fill="#F5555C"/>
<path d="M254.258 338.65C252.632 343.735 242.715 336.813 242.715 336.813C242.715 336.813 242.195 338.642 241.225 338.713C238.929 338.882 228.614 324.771 230.073 323.578C231.334 322.548 233.784 323.278 233.784 323.278C233.784 323.278 233.953 308.292 237.977 311.654C240.148 313.467 240.686 318.32 240.686 318.32C240.686 318.32 243.944 314.546 246.053 316.324C249.963 319.618 243.67 326.811 243.67 326.811C243.67 326.811 250.572 321.853 252.505 326.08C254.137 329.65 246.409 332.769 246.409 332.769C246.409 332.769 255.338 335.27 254.258 338.65Z" fill="#FF9798"/>
<path d="M384.577 98.7273C380.728 75.0282 350.191 60.9481 328.485 71.8418C313.37 79.4278 305.421 92.568 307.262 109.183C309.353 128.062 324.402 140.956 343.645 142.043C367.065 143.365 388.283 121.549 384.577 98.7273Z" stroke="#E1F3FF" stroke-width="8"/>
<path d="M406.788 166.414C404.864 154.564 389.596 147.524 378.743 152.971C371.185 156.764 367.211 163.334 368.131 171.641C369.177 181.081 376.701 187.528 386.323 188.071C398.032 188.733 408.642 177.825 406.788 166.414Z" stroke="#E1F3FF" stroke-width="8"/>
<path d="M370.799 218C368.973 206.47 354.488 199.621 344.192 204.92C337.022 208.611 333.251 215.003 334.124 223.086C335.116 232.27 342.255 238.544 351.383 239.072C362.492 239.716 372.558 229.102 370.799 218Z" stroke="#E1F3FF" stroke-width="8"/>
<defs>
<filter id="filter0_d_189_156" x="-31.1" y="5.72205e-06" width="1342.2" height="406.2" filterUnits="userSpaceOnUse" color-interpolation-filters="sRGB">
<feFlood flood-opacity="0" result="BackgroundImageFix"/>
<feColorMatrix in="SourceAlpha" type="matrix" values="0 0 0 0 0 0 0 0 0 0 0 0 0 0 0 0 0 0 127 0" result="hardAlpha"/>
<feMorphology radius="2" operator="dilate" in="SourceAlpha" result="effect1_dropShadow_189_156"/>
<feOffset dy="17"/>
<feGaussianBlur stdDeviation="14.55"/>
<feComposite in2="hardAlpha" operator="out"/>
<feColorMatrix type="matrix" values="0 0 0 0 0.522669 0 0 0 0 0.666957 0 0 0 0 0.809295 0 0 0 1 0"/>
<feBlend mode="normal" in2="BackgroundImageFix" result="effect1_dropShadow_189_156"/>
<feBlend mode="normal" in="SourceGraphic" in2="effect1_dropShadow_189_156" result="shape"/>
</filter>
<linearGradient id="paint0_linear_189_156" x1="639.263" y1="14.1" x2="641.692" y2="358.093" gradientUnits="userSpaceOnUse">
<stop stop-color="#88C7FD"/>
<stop offset="0.418269" stop-color="#478CD0"/>
<stop offset="1" stop-color="#266EBA"/>
</linearGradient>
<linearGradient id="paint1_linear_189_156" x1="639.263" y1="14.1" x2="641.692" y2="358.093" gradientUnits="userSpaceOnUse">
<stop stop-color="#88C7FD"/>
<stop offset="0.418269" stop-color="#478CD0"/>
<stop offset="1" stop-color="#266EBA"/>
</linearGradient>
</defs>
</svg>
