<svg width="438" height="238" viewBox="0 0 438 238" fill="none" xmlns="http://www.w3.org/2000/svg">
<rect x="18.965" y="13.2625" width="246.544" height="224.579" rx="69" fill="#88C7FD"/>
<path d="M333.269 124.332C335.891 125.325 335.837 129.051 333.189 129.971L255.856 156.833C253.889 157.516 251.843 156.038 251.872 153.957L252.668 98.0922C252.697 96.0112 254.785 94.5912 256.731 95.3286L333.269 124.332Z" fill="#88C7FD"/>
<path d="M130.497 207.146C102.929 204.347 82.4372 214.013 69.7959 190.5C62 176 71.8678 158.5 73.3051 155.741C76.9847 148.678 81.4932 140.096 92.0208 134.508C102.548 128.92 120.876 121.901 140.5 121.5C168.3 120.933 182.856 139.122 194.553 149.739C208.59 162.479 213.717 180.032 204.099 200.707C186.38 216.47 155.19 209.654 130.497 207.146Z" fill="#EBF3FE" stroke="#EBF3FE"/>
<path d="M126.136 78.4456C129.123 75.2141 129.666 71.6775 127.388 67.9239C125.11 64.1703 114.618 62.9726 111.112 67.305C107.607 71.6375 109.86 77.2077 111.738 79.0645C113.616 80.9212 116.164 81.7278 119.25 81.5401C122.198 81.3609 124.143 80.6015 126.136 78.4456Z" fill="#266EBA" stroke="#266EBA"/>
<path d="M157.518 69.7533C155.014 64.8019 144.999 61.0885 141.243 63.5641C138.871 65.1277 137.994 66.9796 137.487 69.7533C136.853 73.2164 137.586 75.824 139.991 78.4182C143.794 82.52 150.24 82.7971 154.388 79.0371C157.238 76.4547 159.247 73.1715 157.518 69.7533Z" fill="#266EBA" stroke="#266EBA"/>
<path d="M170.677 179.796C154.471 187.143 138.126 176.701 134.37 175.464C128.188 178.83 97.9412 187.788 89.2994 170.512C80.6577 153.237 106.588 127.138 130.614 124.093C142.218 122.623 153.15 126.569 160.036 132.139C166.921 137.709 192.587 164.323 170.677 179.796Z" fill="#BDD3EB" stroke="#BDD3EB"/>
<path d="M147.395 116.879C147.395 116.879 160.08 123.707 158.036 131.114C157.493 133.083 156.788 133.95 154.28 134.209C148.118 134.845 137.379 131.733 137.379 131.733C137.379 131.733 137.943 141.636 136.753 144.73C135.876 145.598 134.079 146.708 132.371 146.587C129.306 146.371 127.989 145.349 127.363 143.493C126.737 141.017 126.111 131.919 126.111 131.114C121.959 132.195 116.951 133.143 114.218 132.971C109.123 132.65 107.928 129.788 106.706 126.163C105.744 120.339 109.872 118.639 114.218 116.879C120.29 114.42 139.864 114.176 147.395 116.879Z" fill="#266EBA" stroke="#266EBA"/>
<path d="M189.649 154.812C214.956 147.895 227.698 150.496 247.922 160.088" stroke="#266EBA" stroke-width="8" stroke-linecap="round"/>
<path d="M34.6124 166.224C44.1874 158.997 54.5982 153.908 80.6701 150.309" stroke="#266EBA" stroke-width="8" stroke-linecap="round"/>
<path d="M182.425 140.382C223.065 134.79 235.662 125.83 248.351 118.278" stroke="#266EBA" stroke-width="8" stroke-linecap="round"/>
<path d="M30.3222 115.207C36.8484 127.964 60.5992 136.197 86.3139 138.196" stroke="#266EBA" stroke-width="8" stroke-linecap="round"/>
<path d="M99.2791 132.747C96.9133 133.25 95.3053 134.72 94.8973 137.079C94.3694 140.13 96.7926 142.935 99.9051 143.268C103.175 143.618 106.314 140.946 106.165 137.698C106.015 134.414 102.53 132.054 99.2791 132.747Z" fill="#266EBA" stroke="#266EBA" stroke-linecap="round"/>
<path d="M163.399 132.747C161.033 133.25 159.425 134.72 159.017 137.079C158.489 140.13 160.912 142.935 164.025 143.268C167.295 143.618 170.433 140.946 170.285 137.698C170.134 134.414 166.649 132.054 163.399 132.747Z" fill="#266EBA" stroke="#266EBA" stroke-linecap="round"/>
<path d="M158.883 145.125C156.517 145.629 154.909 147.099 154.501 149.457C153.974 152.508 156.397 155.314 159.509 155.647C162.779 155.996 165.918 153.325 165.769 150.076C165.619 146.792 162.134 144.433 158.883 145.125Z" fill="#266EBA" stroke="#266EBA" stroke-linecap="round"/>
<path d="M105.601 146.893C103.235 147.397 101.627 148.867 101.219 151.226C100.691 154.277 103.114 157.082 106.227 157.415C109.497 157.765 112.635 155.093 112.487 151.845C112.336 148.56 108.851 146.201 105.601 146.893Z" fill="#266EBA" stroke="#266EBA" stroke-linecap="round"/>
<path d="M113.729 134.515C111.363 135.019 109.755 136.489 109.347 138.847C108.819 141.898 111.242 144.704 114.355 145.036C117.624 145.386 120.763 142.715 120.614 139.466C120.464 136.182 116.979 133.823 113.729 134.515Z" fill="#266EBA" stroke="#266EBA" stroke-linecap="round"/>
<path d="M149.729 147.234C146.93 148.167 143.637 146.952 142.843 144.139C142.002 141.158 144.73 138.188 147.851 137.95C150.487 137.749 152.966 139.1 153.485 141.664C154.003 144.227 152.235 146.399 149.729 147.234Z" fill="#266EBA" stroke="#266EBA" stroke-linecap="round"/>
<path d="M73.5 111.5C87.4062 102.075 92.7391 103.514 106.5 113.5" stroke="#266EBA" stroke-width="9" stroke-linecap="round"/>
<path d="M182 110L193.5 104" stroke="#266EBA" stroke-width="8" stroke-linecap="round"/>
<path d="M68 101.536L75.8478 107.734" stroke="#266EBA" stroke-width="8" stroke-linecap="round"/>
<path d="M196 17.0001C182.436 1.41674 177.862 -0.0114269 185 24.5001C163.635 35.1271 165.012 37.7466 189 37.0001C189.682 60.8931 192.103 62.5724 201 38.5001C224.311 46.1465 226.109 43.9024 207 27.0001C218.765 6.29805 216.899 3.54937 196 17.0001Z" fill="white" stroke="white" stroke-width="5" stroke-linecap="round"/>
<path d="M196.445 25.5372C190.489 19.32 188.481 18.7502 191.615 28.5295C182.235 32.7694 182.84 33.8145 193.371 33.5166C193.671 43.0492 194.734 43.7192 198.64 34.1151C208.874 37.1658 209.664 36.2705 201.274 29.5269C206.44 21.2675 205.62 20.1708 196.445 25.5372Z" fill="#F2FF8D" stroke="#F2FF8D" stroke-width="5" stroke-linecap="round"/>
<path d="M231.468 23.0728C222.933 21.6294 221.072 22.3821 229.896 28.4254C225.795 37.5454 226.937 38.0279 234.512 31.4116C241.08 38.9701 242.311 38.8707 238.8 28.7086C248.385 24.991 248.372 23.7861 237.689 23.389C236.003 13.5564 234.668 13.1619 231.468 23.0728Z" fill="#F2FF8D" stroke="#F2FF8D" stroke-width="5" stroke-linecap="round"/>
<path d="M213.468 59.0728C204.933 57.6294 203.072 58.3821 211.896 64.4254C207.795 73.5454 208.937 74.0279 216.512 67.4116C223.08 74.9701 224.311 74.8707 220.8 64.7086C230.385 60.991 230.372 59.7861 219.689 59.389C218.003 49.5564 216.668 49.1619 213.468 59.0728Z" fill="#F2FF8D" stroke="#F2FF8D" stroke-width="5" stroke-linecap="round"/>
<path d="M151 113C161.929 105.11 169.557 105.002 186 113" stroke="#266EBA" stroke-width="9" stroke-linecap="round"/>
</svg>
