<svg width="439" height="238" viewBox="0 0 439 238" fill="none" xmlns="http://www.w3.org/2000/svg">
<rect x="19.465" y="13.2626" width="246.544" height="224.579" rx="69" fill="#88C7FD"/>
<path d="M333.77 124.332C336.391 125.325 336.338 129.051 333.689 129.971L256.356 156.833C254.389 157.516 252.343 156.038 252.372 153.957L253.168 98.0924C253.197 96.0113 255.285 94.5913 257.231 95.3287L333.77 124.332Z" fill="#88C7FD"/>
<path d="M156.782 86.4076C166.798 82.0752 186.992 86.627 191.211 104.356C196.219 125.399 178.065 124.162 171.179 124.162C161.164 122.305 151.774 115.158 149.896 108.02C148.018 100.882 146.766 90.74 156.782 86.4076Z" fill="#266EBA" stroke="#266EBA"/>
<path d="M130.997 207.146C103.429 204.347 82.9373 214.013 70.2959 190.5C62.5001 176 72.3678 158.5 73.8052 155.741C77.4847 148.678 81.9933 140.096 92.5209 134.508C103.049 128.92 121.376 121.901 141 121.5C168.8 120.933 183.356 139.122 195.053 149.739C209.09 162.479 214.217 180.032 204.599 200.707C186.88 216.47 155.69 209.654 130.997 207.146Z" fill="#EBF3FE" stroke="#EBF3FE"/>
<path d="M126.636 78.4456C129.623 75.2141 130.166 71.6775 127.888 67.9239C125.61 64.1703 115.118 62.9726 111.612 67.305C108.107 71.6375 110.36 77.2077 112.238 79.0645C114.116 80.9212 116.664 81.7278 119.75 81.5401C122.698 81.3609 124.643 80.6015 126.636 78.4456Z" fill="#266EBA" stroke="#266EBA"/>
<path d="M158.018 69.7533C155.514 64.8019 145.499 61.0885 141.743 63.5641C139.371 65.1277 138.494 66.9796 137.987 69.7533C137.353 73.2164 138.086 75.824 140.491 78.4182C144.294 82.52 150.74 82.7971 154.888 79.0371C157.738 76.4547 159.747 73.1715 158.018 69.7533Z" fill="#266EBA" stroke="#266EBA"/>
<path d="M171.177 179.796C154.971 187.143 138.626 176.702 134.87 175.464C128.688 178.83 98.4412 187.788 89.7995 170.512C81.1577 153.237 107.088 127.138 131.115 124.093C142.718 122.623 153.65 126.569 160.536 132.139C167.422 137.71 193.087 164.323 171.177 179.796Z" fill="#BDD3EB" stroke="#BDD3EB"/>
<path d="M147.895 116.879C147.895 116.879 160.58 123.707 158.536 131.114C157.993 133.083 157.288 133.95 154.781 134.209C148.618 134.845 137.879 131.733 137.879 131.733C137.879 131.733 138.443 141.636 137.253 144.73C136.376 145.598 134.579 146.708 132.871 146.587C129.806 146.371 128.489 145.349 127.863 143.493C127.237 141.017 126.611 131.919 126.611 131.114C122.459 132.195 117.451 133.143 114.718 132.971C109.623 132.65 108.428 129.788 107.206 126.163C106.244 120.339 110.372 118.639 114.718 116.879C120.79 114.42 140.364 114.176 147.895 116.879Z" fill="#266EBA" stroke="#266EBA"/>
<path d="M190.15 154.812C215.456 147.895 228.198 150.495 248.422 160.088" stroke="#266EBA" stroke-width="8" stroke-linecap="round"/>
<path d="M35.1124 166.224C44.6874 158.997 55.0982 153.908 81.1702 150.309" stroke="#266EBA" stroke-width="8" stroke-linecap="round"/>
<path d="M182.925 140.382C223.565 134.79 236.162 125.83 248.851 118.278" stroke="#266EBA" stroke-width="8" stroke-linecap="round"/>
<path d="M30.8222 115.207C37.3484 127.964 61.0992 136.197 86.814 138.196" stroke="#266EBA" stroke-width="8" stroke-linecap="round"/>
<path d="M99.7792 132.747C97.4134 133.25 95.8053 134.72 95.3973 137.079C94.8695 140.13 97.2927 142.935 100.405 143.268C103.675 143.618 106.814 140.946 106.665 137.698C106.515 134.414 103.03 132.054 99.7792 132.747Z" fill="#266EBA" stroke="#266EBA" stroke-linecap="round"/>
<path d="M163.899 132.747C161.533 133.25 159.925 134.72 159.517 137.079C158.989 140.13 161.412 142.935 164.525 143.268C167.795 143.618 170.933 140.946 170.785 137.698C170.634 134.414 167.149 132.054 163.899 132.747Z" fill="#266EBA" stroke="#266EBA" stroke-linecap="round"/>
<path d="M159.383 145.125C157.017 145.629 155.409 147.099 155.001 149.457C154.474 152.508 156.897 155.314 160.009 155.647C163.279 155.996 166.418 153.325 166.269 150.076C166.119 146.792 162.634 144.433 159.383 145.125Z" fill="#266EBA" stroke="#266EBA" stroke-linecap="round"/>
<path d="M106.101 146.893C103.735 147.397 102.127 148.867 101.719 151.226C101.191 154.277 103.614 157.082 106.727 157.415C109.997 157.765 113.135 155.093 112.987 151.845C112.836 148.56 109.351 146.201 106.101 146.893Z" fill="#266EBA" stroke="#266EBA" stroke-linecap="round"/>
<path d="M114.229 134.515C111.863 135.019 110.255 136.489 109.847 138.847C109.319 141.898 111.742 144.704 114.855 145.036C118.124 145.386 121.263 142.715 121.114 139.466C120.964 136.182 117.479 133.823 114.229 134.515Z" fill="#266EBA" stroke="#266EBA" stroke-linecap="round"/>
<path d="M150.229 147.234C147.43 148.167 144.137 146.952 143.343 144.139C142.502 141.158 145.23 138.188 148.351 137.95C150.987 137.749 153.466 139.1 153.985 141.664C154.503 144.227 152.735 146.399 150.229 147.234Z" fill="#266EBA" stroke="#266EBA" stroke-linecap="round"/>
<path d="M74 111.5C86.9944 117.805 92.2969 119.783 107 113.5" stroke="#266EBA" stroke-width="9" stroke-linecap="round"/>
<path d="M179.5 96L191 90" stroke="#266EBA" stroke-width="8" stroke-linecap="round"/>
<path d="M71.5 121L79.5 115" stroke="#266EBA" stroke-width="8" stroke-linecap="round"/>
<path d="M40.1295 27.8188C29.6562 14.5331 27.7326 16.5112 30.1295 33.8188C13.0661 33.0015 13.5158 36.1243 30.1295 47.3188C24.566 61.4821 25.9946 63.4634 40.1295 51.8188C51.3837 68.881 52.5631 64.5716 51.1295 47.3188C72.7561 41.4532 64.3848 38.7269 51.1295 33.8188C54.5251 13.1745 49.9633 16.9847 40.1295 27.8188Z" fill="#FF94E6" stroke="#FF94E6" stroke-width="5" stroke-linecap="round"/>
<path d="M25.1295 76.8188C14.6562 63.5331 12.7326 65.5112 15.1295 82.8188C-1.93385 82.0015 -1.4842 85.1243 15.1295 96.3188C9.56597 110.482 10.9946 112.463 25.1295 100.819C36.3837 117.881 37.5631 113.572 36.1295 96.3188C57.7561 90.4532 49.3848 87.7269 36.1295 82.8188C39.5251 62.1745 34.9633 65.9847 25.1295 76.8188Z" fill="#FF94E6" stroke="#FF94E6" stroke-width="5" stroke-linecap="round"/>
<circle cx="41" cy="39.5" r="8.5" fill="#F2FF8D"/>
<circle cx="26" cy="90.5" r="8.5" fill="#F2FF8D"/>
</svg>
