<svg xmlns="http://www.w3.org/2000/svg" fill="none" viewBox="0 0 478.99 259">
<rect x="51.9082" width="335.487" height="259" rx="8" fill="#88C7FD"/>
<path d="M476.89 66.7454C479.727 67.6417 479.67 71.6757 476.81 72.4911L368.003 103.503C366.07 104.054 364.152 102.585 364.18 100.576L365.088 35.4703C365.116 33.4604 367.074 32.0467 368.991 32.6524L476.89 66.7454Z" fill="#88C7FD"/>
<path d="M82.7755 115.639C81.1816 121.939 80.6962 132.439 95.2524 136.639C109.809 140.839 122.712 134.539 127.831 123.339C132.949 112.139 119.513 96.7389 109.115 96.0389C98.7181 95.3389 85.6749 104.179 82.7755 115.639Z" fill="#256FB8" stroke="#266EBA"/>
<path d="M175.053 97.7273C186.143 92.8273 208.504 97.9754 213.176 118.027C218.722 141.827 198.62 140.427 190.995 140.427C179.905 138.327 169.508 130.244 167.428 122.171C165.349 114.098 163.962 102.627 175.053 97.7273Z" fill="#266EBA" stroke="#266EBA"/>
<path d="M141.459 247.556C111.078 243.162 87.5423 251.701 75.4006 224.173C67.778 206.891 70.695 192.988 79.2864 176.144C83.3608 168.156 92.2389 158.449 103.896 152.129C115.554 145.809 129.444 142.471 151.173 142.018C181.956 141.376 205.574 158.449 218.526 170.456C234.07 184.865 252.491 213.43 241.841 236.813C232.343 257.667 176.042 252.557 141.459 247.556Z" fill="#EBF3FE" stroke="#EBF3FE"/>
<path d="M141.672 88.7222C144.979 85.0674 145.581 81.0675 143.059 76.8222C140.536 72.5768 128.918 71.2222 125.036 76.1222C121.155 81.0223 123.65 87.3222 125.73 89.4222C127.809 91.5222 130.63 92.4345 134.047 92.2222C137.312 92.0195 139.466 91.1606 141.672 88.7222Z" fill="#266EBA" stroke="#266EBA"/>
<path d="M176.422 78.8913C173.649 73.2912 162.559 69.0912 158.4 71.8913C155.773 73.6596 154.803 75.7542 154.241 78.8913C153.539 82.808 154.35 85.7572 157.014 88.6913C161.225 93.3304 168.362 93.6438 172.956 89.3913C176.111 86.4706 178.336 82.7572 176.422 78.8913Z" fill="#266EBA" stroke="#266EBA"/>
<path d="M190.993 203.35C173.048 211.659 154.949 199.85 150.79 198.45C143.944 202.258 110.452 212.389 100.883 192.85C91.3138 173.312 120.027 143.794 146.631 140.35C159.48 138.687 171.585 143.15 179.209 149.45C186.834 155.75 215.253 185.85 190.993 203.35Z" fill="#BDD3EB" stroke="#BDD3EB"/>
<path d="M165.212 132.191C165.212 132.191 179.258 139.913 176.996 148.291C176.394 150.518 175.613 151.498 172.837 151.791C166.013 152.51 154.122 148.991 154.122 148.991C154.122 148.991 154.746 160.191 153.428 163.691C152.457 164.672 150.467 165.927 148.576 165.791C145.183 165.546 143.724 164.391 143.031 162.291C142.338 159.491 141.645 149.201 141.645 148.291C137.047 149.513 131.501 150.586 128.475 150.391C122.833 150.028 121.51 146.791 120.157 142.691C119.092 136.104 123.663 134.181 128.475 132.191C135.199 129.41 156.873 129.133 165.212 132.191Z" fill="#266EBA" stroke="#266EBA"/>
<path d="M212.001 175.093C257.835 172.078 282.175 177.782 321.945 193.322" stroke="#266EBA" stroke-width="8" stroke-linecap="round"/>
<path d="M13.0011 189.6C29.2844 180.7 46.9892 174.433 91.3276 170" stroke="#266EBA" stroke-width="8" stroke-linecap="round"/>
<path d="M204.001 158.772C265.532 149.47 284.604 134.565 303.815 122" stroke="#266EBA" stroke-width="8" stroke-linecap="round"/>
<path d="M4.00105 108C14.9079 134.803 54.6014 152.1 97.577 156.3" stroke="#266EBA" stroke-width="8" stroke-linecap="round"/>
<path d="M111.933 150.137C109.314 150.707 107.533 152.369 107.081 155.037C106.497 158.488 109.18 161.66 112.627 162.037C116.247 162.432 119.723 159.411 119.558 155.737C119.392 152.022 115.533 149.354 111.933 150.137Z" fill="#266EBA" stroke="#266EBA" stroke-linecap="round"/>
<path d="M182.933 150.137C180.314 150.707 178.533 152.369 178.081 155.037C177.497 158.488 180.18 161.66 183.627 162.037C187.247 162.432 190.723 159.411 190.558 155.737C190.392 152.022 186.533 149.354 182.933 150.137Z" fill="#266EBA" stroke="#266EBA" stroke-linecap="round"/>
<path d="M177.933 164.137C175.314 164.707 173.533 166.369 173.081 169.037C172.497 172.488 175.18 175.66 178.627 176.037C182.247 176.432 185.723 173.411 185.558 169.737C185.392 166.022 181.533 163.354 177.933 164.137Z" fill="#266EBA" stroke="#266EBA" stroke-linecap="round"/>
<path d="M118.933 166.137C116.314 166.707 114.533 168.369 114.081 171.037C113.497 174.488 116.18 177.66 119.627 178.037C123.247 178.432 126.723 175.411 126.558 171.737C126.392 168.022 122.533 165.354 118.933 166.137Z" fill="#266EBA" stroke="#266EBA" stroke-linecap="round"/>
<path d="M127.933 152.137C125.314 152.707 123.533 154.369 123.081 157.037C122.497 160.488 125.18 163.66 128.627 164.037C132.247 164.432 135.723 161.411 135.558 157.737C135.392 154.022 131.533 151.354 127.933 152.137Z" fill="#266EBA" stroke="#266EBA" stroke-linecap="round"/>
<path d="M167.797 166.522C164.697 167.577 161.051 166.204 160.172 163.022C159.241 159.65 162.261 156.291 165.717 156.022C168.637 155.795 171.381 157.323 171.956 160.222C172.53 163.122 170.571 165.578 167.797 166.522Z" fill="#266EBA" stroke="#266EBA" stroke-linecap="round"/>
</svg>