<svg width="438" height="238" viewBox="0 0 438 238" fill="none" xmlns="http://www.w3.org/2000/svg">
<rect x="18.965" y="13.2625" width="246.544" height="224.579" rx="69" fill="#88C7FD"/>
<path d="M333.269 124.332C335.891 125.325 335.837 129.051 333.189 129.971L255.856 156.833C253.889 157.516 251.843 156.038 251.872 153.957L252.668 98.0923C252.697 96.0113 254.785 94.5913 256.731 95.3287L333.269 124.332Z" fill="#88C7FD"/>
<path d="M72.9469 102.244C71.5074 107.815 71.069 117.098 84.2146 120.812C97.3602 124.525 109.013 118.955 113.636 109.053C118.258 99.1498 106.124 85.5336 96.7342 84.9147C87.3445 84.2958 75.5652 92.1123 72.9469 102.244Z" fill="#256FB8" stroke="#266EBA"/>
<path d="M156.282 86.4076C166.297 82.0751 186.492 86.6269 190.711 104.356C195.719 125.399 177.565 124.162 170.679 124.162C160.664 122.305 151.274 115.157 149.396 108.02C147.518 100.882 146.266 90.74 156.282 86.4076Z" fill="#266EBA" stroke="#266EBA"/>
<path d="M130.497 207.146C102.929 204.347 82.4372 214.013 69.7959 190.5C62 176 71.8678 158.5 73.3051 155.741C76.9847 148.678 81.4932 140.096 92.0208 134.508C102.548 128.92 120.876 121.9 140.5 121.5C168.3 120.933 182.856 139.122 194.553 149.739C208.59 162.479 213.717 180.032 204.099 200.707C186.38 216.47 155.19 209.654 130.497 207.146Z" fill="#EBF3FE" stroke="#EBF3FE"/>
<path d="M126.136 78.4455C129.123 75.214 129.666 71.6775 127.388 67.9239C125.11 64.1703 114.618 62.9725 111.112 67.305C107.607 71.6374 109.86 77.2077 111.738 79.0644C113.616 80.9212 116.164 81.7278 119.25 81.5401C122.198 81.3608 124.143 80.6015 126.136 78.4455Z" fill="#266EBA" stroke="#266EBA"/>
<path d="M157.518 69.7533C155.014 64.8019 144.999 61.0884 141.243 63.5641C138.871 65.1276 137.994 66.9796 137.487 69.7533C136.853 73.2163 137.586 75.8239 139.991 78.4181C143.794 82.52 150.24 82.7971 154.388 79.0371C157.238 76.4547 159.247 73.1715 157.518 69.7533Z" fill="#266EBA" stroke="#266EBA"/>
<path d="M170.677 179.796C154.471 187.143 138.126 176.702 134.37 175.464C128.188 178.83 97.9412 187.788 89.2994 170.512C80.6577 153.237 106.588 127.138 130.614 124.093C142.218 122.623 153.15 126.569 160.036 132.139C166.921 137.71 192.587 164.323 170.677 179.796Z" fill="#BDD3EB" stroke="#BDD3EB"/>
<path d="M147.395 116.879C147.395 116.879 160.08 123.707 158.036 131.114C157.493 133.083 156.788 133.95 154.28 134.209C148.118 134.845 137.379 131.733 137.379 131.733C137.379 131.733 137.943 141.636 136.753 144.73C135.876 145.598 134.079 146.708 132.371 146.587C129.306 146.371 127.989 145.349 127.363 143.493C126.737 141.017 126.111 131.919 126.111 131.114C121.959 132.195 116.951 133.143 114.218 132.971C109.123 132.65 107.928 129.788 106.706 126.163C105.744 120.339 109.872 118.639 114.218 116.879C120.29 114.42 139.864 114.176 147.395 116.879Z" fill="#266EBA" stroke="#266EBA"/>
<path d="M189.649 154.812C214.956 147.895 227.698 150.495 247.922 160.088" stroke="#266EBA" stroke-width="8" stroke-linecap="round"/>
<path d="M34.6124 166.224C44.1874 158.997 54.5982 153.908 80.6701 150.309" stroke="#266EBA" stroke-width="8" stroke-linecap="round"/>
<path d="M182.425 140.382C223.065 134.79 235.662 125.83 248.351 118.278" stroke="#266EBA" stroke-width="8" stroke-linecap="round"/>
<path d="M30.3222 115.207C36.8484 127.964 60.5992 136.197 86.3139 138.196" stroke="#266EBA" stroke-width="8" stroke-linecap="round"/>
<path d="M99.2791 132.747C96.9133 133.25 95.3053 134.72 94.8973 137.079C94.3694 140.13 96.7926 142.935 99.9051 143.268C103.175 143.618 106.314 140.946 106.165 137.698C106.015 134.414 102.53 132.054 99.2791 132.747Z" fill="#266EBA" stroke="#266EBA" stroke-linecap="round"/>
<path d="M163.399 132.747C161.033 133.25 159.425 134.72 159.017 137.079C158.489 140.13 160.912 142.935 164.025 143.268C167.295 143.618 170.433 140.946 170.285 137.698C170.134 134.414 166.649 132.054 163.399 132.747Z" fill="#266EBA" stroke="#266EBA" stroke-linecap="round"/>
<path d="M158.883 145.125C156.517 145.629 154.909 147.099 154.501 149.457C153.974 152.508 156.397 155.314 159.509 155.646C162.779 155.996 165.918 153.325 165.769 150.076C165.619 146.792 162.134 144.433 158.883 145.125Z" fill="#266EBA" stroke="#266EBA" stroke-linecap="round"/>
<path d="M105.601 146.893C103.235 147.397 101.627 148.867 101.219 151.226C100.691 154.277 103.114 157.082 106.227 157.415C109.497 157.765 112.635 155.093 112.487 151.845C112.336 148.56 108.851 146.201 105.601 146.893Z" fill="#266EBA" stroke="#266EBA" stroke-linecap="round"/>
<path d="M113.729 134.515C111.363 135.019 109.755 136.489 109.347 138.847C108.819 141.898 111.242 144.704 114.355 145.036C117.624 145.386 120.763 142.715 120.614 139.466C120.464 136.182 116.979 133.823 113.729 134.515Z" fill="#266EBA" stroke="#266EBA" stroke-linecap="round"/>
<path d="M149.729 147.234C146.93 148.167 143.637 146.952 142.843 144.139C142.002 141.158 144.73 138.188 147.851 137.95C150.487 137.749 152.966 139.1 153.485 141.664C154.003 144.227 152.235 146.399 149.729 147.234Z" fill="#266EBA" stroke="#266EBA" stroke-linecap="round"/>
</svg>
