<svg width="80" height="95" viewBox="0 0 80 95" fill="none" xmlns="http://www.w3.org/2000/svg">
<path d="M7 69V91H72V69" stroke="url(#paint0_linear_58_154)" stroke-width="8" stroke-linecap="round"/>
<path d="M35.4367 68.5051C35.4151 70.7142 37.1883 72.5225 39.3974 72.5441C41.6064 72.5657 43.4147 70.7925 43.4363 68.5835L39.4365 68.5443L35.4367 68.5051ZM42.8658 7.1995C41.3191 5.62218 38.7865 5.59738 37.2092 7.14411L11.5053 32.3495C9.928 33.8962 9.9032 36.4287 11.4499 38.0061C12.9967 39.5834 15.5292 39.6082 17.1065 38.0615L39.9544 15.6567L62.3592 38.5046C63.9059 40.0819 66.4384 40.1067 68.0158 38.56C69.5931 37.0132 69.6179 34.4807 68.0711 32.9034L42.8658 7.1995ZM39.4365 68.5443L43.4363 68.5835L44.0096 10.0393L40.0098 10.0001L36.01 9.96093L35.4367 68.5051L39.4365 68.5443Z" fill="url(#paint1_linear_58_154)"/>
<defs>
<linearGradient id="paint0_linear_58_154" x1="39.5" y1="69" x2="39.5" y2="91" gradientUnits="userSpaceOnUse">
<stop stop-color="#88C7FD"/>
<stop offset="1" stop-color="#266EBA"/>
</linearGradient>
<linearGradient id="paint1_linear_58_154" x1="40.4997" y1="11.0321" x2="39.9365" y2="68.5492" gradientUnits="userSpaceOnUse">
<stop stop-color="#88C7FD"/>
<stop offset="1" stop-color="#266EBA"/>
</linearGradient>
</defs>
</svg>
